<?xml version="1.0" standalone="no"?><!DOCTYPE svg PUBLIC "-//W3C//DTD SVG 1.1//EN" "http://www.w3.org/Graphics/SVG/1.1/DTD/svg11.dtd"><svg t="1578365493253" class="icon" viewBox="0 0 1024 1024" version="1.1" xmlns="http://www.w3.org/2000/svg" p-id="2331" xmlns:xlink="http://www.w3.org/1999/xlink" width="200" height="200"><defs><style type="text/css"></style></defs><path d="M646 0l0 207.666C646 244.81 669.32 274 698.874 274l157.848 0L646 0z" p-id="2332"></path><path d="M627.182 717.204c0 0-43.858-114.078-33.338-124.61 10.516-10.534 124.42 33.388 124.42 33.388L627.182 717.204z" p-id="2333"></path><path d="M990.346 897.006 897.792 989.702 632.756 724.262 725.31 631.566Z" p-id="2334"></path><path d="M626.446 746.276 622 741.448l-11.036-10.674L608 725.416l-0.64-4.054c-3.098-8.194-11.83-31.64-19.818-56.336-19.742-61.046-18.374-76.056-7.834-86.608 7.482-7.494 17.508-7.494 20.802-7.494 27.644 0 100.918 27.186 121.916 35.198l3.574 1.064 5.794 2.542 12.206 11.484 3.292 4.034L856 734.122 856 328 633.666 328C605.982 328 584 302.614 584 269.454L584 0 50.532 0C22.848 0 0 26.14 0 59.302l0 904.656C0 997.118 22.848 1024 50.532 1024l755.232 0c24.454 0 44.89-20.978 49.33-48.728L626.446 746.276zM332 260l136 0 0 60-136 0L332 260zM332 480l326 0 0 62L332 542 332 480zM248 762 198 762l0-60 50 0L248 762zM248 542 198 542l0-62 50 0L248 542zM248 320 198 320l0-60 50 0L248 320zM568 762 332 762l0-60 236 0L568 762z" p-id="2335"></path><path d="M1024.002 930.714 931.45 1023.406 904.104 996.02 996.658 903.326Z" p-id="2336"></path></svg>